<?xml version="1.0" encoding="utf-8"?>
<!-- Generator: Adobe Illustrator 16.0.0, SVG Export Plug-In . SVG Version: 6.00 Build 0)  -->
<!DOCTYPE svg PUBLIC "-//W3C//DTD SVG 1.1//EN" "http://www.w3.org/Graphics/SVG/1.1/DTD/svg11.dtd">
<svg version="1.1" id="Layer_1" xmlns="http://www.w3.org/2000/svg" xmlns:xlink="http://www.w3.org/1999/xlink" x="0px" y="0px"
	 width="256px" height="256px" viewBox="0 0 256 256" enable-background="new 0 0 256 256" xml:space="preserve">
<g id="Layer_2">
	<rect fill="#C91E60" width="256" height="256"/>
</g>
<g id="Layer_4">
	<g>
		<path fill="none" d="M153.006,225.924c-13.807,0-25-11.193-25-25c0-13.808,11.193-25,25-25H256V0H0v256h256v-30.076H153.006
			L153.006,225.924z"/>
		<path fill="#FFFFFF" d="M128.006,200.924c0,13.807,11.193,25,25,25H256v-50H153.006
			C139.199,175.924,128.006,187.116,128.006,200.924z"/>
	</g>
</g>
<g id="Layer_6">
	<g>
		<path fill="#C91E60" d="M166.129,200.07c0,1.252-0.234,2.425-0.707,3.521c-0.472,1.098-1.121,2.059-1.945,2.885
			c-0.826,0.824-1.787,1.474-2.884,1.944c-1.098,0.472-2.271,0.707-3.521,0.707c-1.086,0-2.104-0.178-3.061-0.53
			c-0.955-0.354-1.82-0.836-2.602-1.449v7.074c0,0.473-0.165,0.871-0.495,1.203c-0.33,0.33-0.729,0.495-1.202,0.495
			s-0.873-0.165-1.201-0.495c-0.332-0.332-0.494-0.73-0.494-1.203v-14.149c0-1.251,0.233-2.425,0.705-3.521
			c0.473-1.098,1.117-2.059,1.945-2.885c0.826-0.826,1.786-1.475,2.885-1.945c1.096-0.472,2.27-0.707,3.52-0.707
			s2.423,0.235,3.521,0.707c1.096,0.473,2.057,1.119,2.883,1.945c0.824,0.826,1.476,1.787,1.945,2.885
			C165.895,197.646,166.129,198.82,166.129,200.07 M162.732,200.07c0-0.778-0.147-1.51-0.441-2.191
			c-0.297-0.686-0.702-1.285-1.221-1.805c-0.521-0.52-1.12-0.926-1.805-1.221c-0.687-0.295-1.416-0.442-2.193-0.442
			c-0.778,0-1.51,0.147-2.193,0.442c-0.686,0.295-1.285,0.701-1.805,1.221s-0.926,1.119-1.221,1.805
			c-0.295,0.684-0.441,1.413-0.441,2.191c0,0.779,0.146,1.511,0.441,2.193c0.295,0.685,0.701,1.286,1.221,1.805
			c0.52,0.52,1.119,0.927,1.805,1.221c0.686,0.298,1.415,0.441,2.193,0.441c0.777,0,1.509-0.146,2.193-0.441
			c0.685-0.294,1.284-0.701,1.805-1.221c0.519-0.519,0.924-1.12,1.221-1.805C162.585,201.581,162.732,200.85,162.732,200.07"/>
		<path fill="#C91E60" d="M167.827,200.07c0-1.25,0.235-2.424,0.707-3.521s1.12-2.058,1.946-2.884
			c0.824-0.825,1.785-1.475,2.883-1.946c1.098-0.471,2.271-0.704,3.521-0.704c1.249,0,2.425,0.233,3.519,0.704
			c1.099,0.474,2.06,1.121,2.886,1.946c0.823,0.826,1.476,1.787,1.944,2.884c0.473,1.097,0.707,2.271,0.707,3.521
			c0,1.252-0.234,2.425-0.707,3.521c-0.473,1.098-1.121,2.059-1.944,2.885c-0.826,0.824-1.787,1.474-2.886,1.944
			c-1.094,0.472-2.27,0.707-3.519,0.707c-1.251,0-2.424-0.235-3.521-0.707c-1.098-0.473-2.059-1.12-2.883-1.944
			c-0.826-0.826-1.477-1.787-1.946-2.885C168.062,202.495,167.827,201.322,167.827,200.07 M171.225,200.07
			c0,0.779,0.146,1.511,0.44,2.193c0.297,0.685,0.702,1.286,1.222,1.805c0.518,0.52,1.12,0.927,1.805,1.221
			c0.685,0.298,1.414,0.441,2.193,0.441c0.776,0,1.508-0.146,2.191-0.441c0.686-0.294,1.285-0.701,1.806-1.221
			c0.519-0.519,0.925-1.12,1.22-1.805c0.297-0.685,0.443-1.414,0.443-2.193c0-0.778-0.146-1.51-0.443-2.191
			c-0.295-0.686-0.701-1.285-1.22-1.805c-0.521-0.52-1.12-0.926-1.806-1.221c-0.684-0.295-1.415-0.442-2.191-0.442
			c-0.779,0-1.511,0.147-2.193,0.442c-0.685,0.295-1.287,0.701-1.805,1.221c-0.52,0.52-0.925,1.119-1.222,1.805
			C171.37,198.561,171.225,199.292,171.225,200.07"/>
		<path fill="#C91E60" d="M185.092,215.921c-0.472,0-0.873-0.165-1.203-0.495c-0.328-0.332-0.494-0.729-0.494-1.203
			c0-0.472,0.166-0.873,0.494-1.203c0.33-0.33,0.731-0.494,1.203-0.494c0.944,0,1.746-0.33,2.405-0.989
			c0.659-0.662,0.991-1.463,0.991-2.406v-16.414c0-0.472,0.164-0.871,0.496-1.202c0.326-0.33,0.729-0.494,1.201-0.494
			c0.471,0,0.875,0.164,1.203,0.494c0.33,0.331,0.493,0.73,0.493,1.202v16.414c0,0.943-0.177,1.827-0.528,2.653
			c-0.354,0.824-0.838,1.545-1.451,2.156c-0.613,0.613-1.332,1.1-2.157,1.451C186.919,215.743,186.036,215.921,185.092,215.921
			 M188.205,187.9c0-0.541,0.195-1.008,0.583-1.396c0.39-0.391,0.854-0.585,1.397-0.585s1.008,0.194,1.396,0.585
			c0.39,0.39,0.584,0.854,0.584,1.396c0,0.543-0.194,1.011-0.584,1.397c-0.392,0.39-0.854,0.584-1.396,0.584
			c-0.543,0-1.011-0.194-1.397-0.584C188.4,188.911,188.205,188.443,188.205,187.9"/>
		<path fill="#C91E60" d="M194.432,200.07c0-1.25,0.234-2.424,0.707-3.521s1.118-2.058,1.946-2.884
			c0.824-0.825,1.783-1.475,2.884-1.946c1.096-0.471,2.27-0.704,3.518-0.704c1.25,0,2.427,0.233,3.522,0.704
			c1.097,0.474,2.056,1.121,2.884,1.946c0.824,0.826,1.474,1.787,1.943,2.884c0.473,1.097,0.708,2.271,0.708,3.521
			c0,1.252-0.235,2.425-0.708,3.521c-0.473,1.098-1.119,2.059-1.943,2.885c-0.828,0.824-1.787,1.474-2.884,1.944
			c-1.098,0.472-2.272,0.707-3.522,0.707c-1.248,0-2.422-0.235-3.518-0.707c-1.101-0.473-2.06-1.12-2.884-1.944
			c-0.828-0.826-1.476-1.787-1.946-2.885C194.666,202.495,194.432,201.322,194.432,200.07 M197.827,200.07
			c0,0.779,0.146,1.511,0.442,2.193c0.295,0.685,0.701,1.286,1.219,1.805c0.521,0.52,1.121,0.927,1.806,1.221
			c0.685,0.298,1.415,0.441,2.192,0.441c0.779,0,1.511-0.146,2.193-0.441c0.684-0.294,1.283-0.701,1.803-1.221
			c0.52-0.519,0.927-1.12,1.225-1.805c0.294-0.685,0.439-1.414,0.439-2.193c0-0.778-0.146-1.51-0.439-2.191
			c-0.298-0.686-0.705-1.285-1.225-1.805s-1.119-0.926-1.803-1.221c-0.685-0.295-1.414-0.442-2.193-0.442
			c-0.777,0-1.51,0.147-2.192,0.442c-0.685,0.295-1.285,0.701-1.806,1.221c-0.518,0.52-0.924,1.119-1.219,1.805
			C197.975,198.561,197.827,199.292,197.827,200.07"/>
		<path fill="#353E44" d="M213.941,207.715c0.389,0,0.705,0.316,0.705,0.706s-0.316,0.707-0.705,0.707
			c-0.392,0-0.709-0.317-0.709-0.707S213.553,207.715,213.941,207.715"/>
		<path fill="#353E44" d="M223.846,208.562c0,0.316-0.246,0.563-0.564,0.563s-0.567-0.246-0.567-0.563v-4.528
			c0-1.556-1.271-2.83-2.827-2.83c-1.56,0-2.83,1.274-2.83,2.83v4.528c0,0.316-0.246,0.563-0.564,0.563
			c-0.319,0-0.566-0.246-0.566-0.563v-4.528c0-2.192,1.77-3.962,3.963-3.962c1.432,0,2.705,0.777,3.396,1.929
			c0.688-1.149,1.943-1.929,3.396-1.929c2.191,0,3.963,1.77,3.963,3.962v4.528c0,0.316-0.25,0.563-0.566,0.563
			c-0.318,0-0.564-0.246-0.564-0.563v-4.528c0-1.556-1.275-2.83-2.83-2.83c-1.559,0-2.832,1.274-2.832,2.83v4.528H223.846z"/>
		<path fill="#353E44" d="M236.441,209.128c-2.494,0-4.528-2.034-4.528-4.526s2.034-4.527,4.528-4.527
			c2.492,0,4.523,2.035,4.523,4.527c0,0.317-0.248,0.564-0.562,0.564h-7.324c0.285,1.609,1.682,2.83,3.363,2.83h1.131
			c0.316,0,0.566,0.248,0.566,0.566c0,0.317-0.25,0.563-0.566,0.563L236.441,209.128L236.441,209.128z M233.078,204.034h6.705
			c-0.266-1.593-1.663-2.83-3.342-2.83C234.76,201.204,233.363,202.441,233.078,204.034"/>
	</g>
</g>
<g id="Layer_7">
</g>
<g>
	<path fill="#FFFFFF" d="M92.221,83.745v-28.8h10.52c1.866,0,3.406,0.213,4.62,0.64c1.213,0.427,2.174,1.014,2.88,1.76
		c0.707,0.747,1.2,1.607,1.48,2.58c0.28,0.974,0.42,1.994,0.42,3.06c0,1.6-0.327,2.92-0.98,3.96s-1.5,1.86-2.54,2.46
		c-1.039,0.6-2.22,1.02-3.539,1.26c-1.32,0.24-2.647,0.36-3.98,0.36h-6.16v12.72H92.221z M101.181,68.705
		c1.28,0,2.426-0.08,3.439-0.24c1.014-0.16,1.874-0.46,2.58-0.9c0.707-0.44,1.254-1.04,1.641-1.8c0.386-0.76,0.58-1.753,0.58-2.98
		c0-1.813-0.594-3.187-1.78-4.12c-1.187-0.933-3.074-1.4-5.66-1.4h-7.04v11.44H101.181z"/>
	<path fill="#FFFFFF" d="M124.66,84.305c-1.334-0.027-2.58-0.267-3.74-0.72s-2.174-1.133-3.04-2.04
		c-0.867-0.906-1.554-2.04-2.06-3.4c-0.507-1.36-0.761-2.946-0.761-4.76c0-1.52,0.2-2.94,0.601-4.26c0.399-1.32,1-2.473,1.8-3.46
		c0.8-0.986,1.8-1.766,3-2.34c1.2-0.573,2.6-0.86,4.2-0.86c1.626,0,3.04,0.287,4.24,0.86c1.199,0.574,2.199,1.347,3,2.32
		c0.8,0.974,1.393,2.127,1.779,3.46c0.387,1.334,0.58,2.76,0.58,4.28c0,1.654-0.227,3.147-0.68,4.48
		c-0.454,1.333-1.1,2.48-1.94,3.44c-0.84,0.96-1.854,1.7-3.04,2.22S126.1,84.305,124.66,84.305z M131.7,73.385
		c0-1.227-0.134-2.373-0.4-3.44c-0.267-1.066-0.68-1.993-1.24-2.78c-0.56-0.786-1.279-1.406-2.159-1.86
		c-0.88-0.453-1.96-0.68-3.24-0.68c-1.254,0-2.327,0.247-3.22,0.74c-0.895,0.494-1.62,1.147-2.181,1.96
		c-0.56,0.813-0.974,1.747-1.239,2.8c-0.268,1.054-0.4,2.14-0.4,3.26c0,1.28,0.153,2.46,0.46,3.54c0.307,1.08,0.753,2.007,1.34,2.78
		c0.586,0.774,1.32,1.374,2.2,1.8c0.88,0.427,1.893,0.64,3.04,0.64c1.253,0,2.326-0.246,3.22-0.74c0.894-0.493,1.62-1.153,2.18-1.98
		c0.561-0.827,0.974-1.76,1.24-2.8S131.7,74.505,131.7,73.385z"/>
	<path fill="#FFFFFF" d="M141.7,63.025v23.48c0,0.88-0.04,1.653-0.12,2.32c-0.08,0.666-0.26,1.233-0.54,1.7
		c-0.279,0.466-0.693,0.813-1.24,1.04s-1.3,0.34-2.26,0.34c-0.587,0-1.106-0.054-1.56-0.16v-2.12c0.693,0.08,1.253,0.086,1.68,0.02
		c0.427-0.067,0.76-0.22,1-0.46c0.24-0.24,0.406-0.56,0.5-0.96c0.093-0.4,0.14-0.867,0.14-1.4v-23.8H141.7z M141.82,58.505h-2.64
		v-3.56h2.64V58.505z"/>
	<path fill="#FFFFFF" d="M155.779,84.305c-1.334-0.027-2.58-0.267-3.74-0.72s-2.174-1.133-3.04-2.04
		c-0.867-0.906-1.554-2.04-2.06-3.4c-0.507-1.36-0.761-2.946-0.761-4.76c0-1.52,0.2-2.94,0.601-4.26c0.399-1.32,1-2.473,1.8-3.46
		c0.8-0.986,1.8-1.766,3-2.34c1.2-0.573,2.6-0.86,4.2-0.86c1.626,0,3.04,0.287,4.24,0.86c1.199,0.574,2.199,1.347,3,2.32
		c0.8,0.974,1.393,2.127,1.779,3.46c0.387,1.334,0.58,2.76,0.58,4.28c0,1.654-0.227,3.147-0.68,4.48
		c-0.454,1.333-1.1,2.48-1.94,3.44c-0.84,0.96-1.854,1.7-3.04,2.22S157.219,84.305,155.779,84.305z M162.819,73.385
		c0-1.227-0.134-2.373-0.4-3.44c-0.267-1.066-0.68-1.993-1.24-2.78c-0.56-0.786-1.279-1.406-2.159-1.86
		c-0.88-0.453-1.96-0.68-3.24-0.68c-1.254,0-2.327,0.247-3.22,0.74c-0.895,0.494-1.62,1.147-2.181,1.96
		c-0.56,0.813-0.974,1.747-1.239,2.8c-0.268,1.054-0.4,2.14-0.4,3.26c0,1.28,0.153,2.46,0.46,3.54c0.307,1.08,0.753,2.007,1.34,2.78
		c0.586,0.774,1.32,1.374,2.2,1.8c0.88,0.427,1.893,0.64,3.04,0.64c1.253,0,2.326-0.246,3.22-0.74c0.894-0.493,1.62-1.153,2.18-1.98
		c0.561-0.827,0.974-1.76,1.24-2.8S162.819,74.505,162.819,73.385z"/>
	<path fill="#FFFFFF" d="M52.361,123.145c0.105,1.28,0.393,2.367,0.859,3.26c0.467,0.894,1.066,1.62,1.8,2.18
		c0.733,0.56,1.58,0.967,2.54,1.22c0.96,0.254,1.986,0.381,3.08,0.381c1.28,0,2.387-0.16,3.32-0.48s1.693-0.753,2.28-1.3
		c0.586-0.546,1.02-1.18,1.3-1.9c0.28-0.72,0.42-1.48,0.42-2.28c0-1.12-0.254-2.026-0.76-2.72c-0.507-0.693-1.167-1.26-1.98-1.7
		s-1.747-0.793-2.8-1.06c-1.054-0.266-2.134-0.526-3.24-0.78s-2.187-0.553-3.239-0.9c-1.054-0.346-1.987-0.813-2.801-1.4
		c-0.813-0.586-1.474-1.34-1.979-2.26c-0.507-0.92-0.76-2.086-0.76-3.5c0-0.986,0.206-1.946,0.619-2.88
		c0.414-0.933,1.026-1.76,1.841-2.48c0.812-0.72,1.833-1.293,3.06-1.72c1.227-0.426,2.64-0.64,4.24-0.64
		c1.626,0,3.046,0.227,4.26,0.68c1.213,0.454,2.22,1.074,3.021,1.86c0.8,0.787,1.399,1.7,1.8,2.74c0.399,1.04,0.6,2.146,0.6,3.32
		h-2.6c0-1.093-0.194-2.04-0.58-2.84c-0.387-0.8-0.914-1.453-1.58-1.96c-0.667-0.506-1.427-0.88-2.28-1.12
		c-0.854-0.24-1.733-0.36-2.64-0.36c-1.387,0-2.554,0.194-3.5,0.58c-0.947,0.387-1.7,0.887-2.26,1.5
		c-0.561,0.614-0.947,1.294-1.16,2.04c-0.214,0.747-0.254,1.494-0.12,2.24c0.16,0.934,0.533,1.68,1.12,2.24
		c0.586,0.56,1.306,1.02,2.16,1.38c0.853,0.36,1.793,0.653,2.819,0.88s2.073,0.467,3.141,0.72c1.065,0.254,2.1,0.554,3.1,0.9
		s1.887,0.813,2.66,1.4c0.773,0.587,1.393,1.34,1.86,2.26c0.466,0.92,0.699,2.074,0.699,3.46c0,2.667-0.92,4.734-2.76,6.2
		c-1.84,1.467-4.427,2.2-7.76,2.2c-1.494,0-2.88-0.193-4.16-0.579c-1.28-0.387-2.387-0.974-3.32-1.761
		c-0.934-0.786-1.66-1.76-2.18-2.92s-0.78-2.526-0.78-4.1H52.361z"/>
	<path fill="#FFFFFF" d="M75.561,106.505v-3.56h2.64v3.56H75.561z M75.681,131.745v-20.72h2.399v20.72H75.681z"/>
	<path fill="#FFFFFF" d="M100.2,102.945h2.4v28.8h-2.4v-3.64h-0.08c-0.347,0.694-0.794,1.3-1.34,1.821
		c-0.547,0.52-1.146,0.953-1.8,1.299c-0.654,0.348-1.327,0.613-2.021,0.801c-0.693,0.186-1.373,0.279-2.04,0.279
		c-1.68,0-3.106-0.279-4.279-0.84c-1.174-0.56-2.141-1.326-2.9-2.3c-0.76-0.973-1.313-2.126-1.66-3.46
		c-0.347-1.333-0.52-2.76-0.52-4.28c0-1.44,0.186-2.827,0.56-4.16c0.373-1.333,0.94-2.5,1.7-3.5s1.72-1.8,2.88-2.4
		s2.526-0.9,4.101-0.9c1.466,0,2.873,0.327,4.22,0.98c1.346,0.653,2.406,1.62,3.18,2.9V102.945z M100.2,121.305
		c0-1.173-0.16-2.286-0.479-3.34c-0.32-1.053-0.78-1.973-1.381-2.76c-0.6-0.786-1.333-1.413-2.199-1.88
		c-0.867-0.466-1.848-0.7-2.94-0.7c-1.254,0-2.334,0.247-3.24,0.74c-0.906,0.494-1.653,1.167-2.239,2.02
		c-0.587,0.854-1.014,1.847-1.28,2.98c-0.267,1.134-0.374,2.354-0.32,3.66c0,1.307,0.181,2.46,0.54,3.46c0.36,1,0.86,1.847,1.5,2.54
		c0.641,0.694,1.387,1.22,2.24,1.581c0.854,0.359,1.786,0.539,2.8,0.539c1.12,0,2.12-0.226,3-0.68c0.88-0.453,1.613-1.073,2.2-1.86
		c0.586-0.786,1.033-1.72,1.34-2.8S100.2,122.559,100.2,121.305z"/>
	<path fill="#FFFFFF" d="M110.12,121.945c0,1.12,0.146,2.18,0.439,3.18c0.293,1,0.727,1.867,1.3,2.6
		c0.573,0.734,1.301,1.32,2.181,1.76s1.893,0.659,3.04,0.659c1.573,0,2.92-0.412,4.04-1.239c1.12-0.826,1.866-2,2.239-3.52h2.681
		c-0.294,0.987-0.681,1.9-1.16,2.74c-0.48,0.84-1.08,1.574-1.8,2.2c-0.721,0.627-1.574,1.114-2.561,1.46s-2.134,0.52-3.439,0.52
		c-1.654,0-3.08-0.279-4.28-0.84c-1.2-0.56-2.187-1.326-2.96-2.3c-0.773-0.973-1.347-2.12-1.72-3.44
		c-0.374-1.32-0.561-2.74-0.561-4.26s0.22-2.946,0.66-4.28c0.44-1.333,1.066-2.5,1.88-3.5s1.807-1.786,2.98-2.36
		c1.173-0.573,2.506-0.86,4-0.86c2.853,0,5.093,0.98,6.72,2.94c1.626,1.96,2.426,4.807,2.4,8.54H110.12z M123.64,119.945
		c0-1.013-0.14-1.966-0.42-2.86c-0.28-0.893-0.693-1.666-1.24-2.32c-0.547-0.653-1.233-1.173-2.06-1.56
		c-0.827-0.386-1.773-0.58-2.84-0.58c-1.067,0-2.007,0.2-2.82,0.6s-1.507,0.934-2.08,1.6c-0.573,0.667-1.033,1.44-1.38,2.32
		s-0.574,1.814-0.68,2.8H123.64z"/>
	<path fill="#FFFFFF" d="M133.56,131.745h-2.399v-28.8h2.399v11.4c0.773-1.28,1.834-2.247,3.181-2.9
		c1.346-0.653,2.753-0.98,4.22-0.98c1.573,0,2.94,0.3,4.1,0.9c1.16,0.6,2.12,1.4,2.881,2.4c0.76,1,1.326,2.167,1.699,3.5
		c0.373,1.333,0.561,2.72,0.561,4.16c0,1.52-0.174,2.947-0.521,4.28c-0.347,1.334-0.899,2.487-1.66,3.46
		c-0.76,0.974-1.727,1.74-2.899,2.3c-1.174,0.561-2.601,0.84-4.28,0.84c-0.667,0-1.347-0.094-2.04-0.279
		c-0.693-0.188-1.366-0.453-2.02-0.801c-0.654-0.346-1.254-0.779-1.8-1.299c-0.547-0.521-0.994-1.127-1.341-1.821h-0.08V131.745z
		 M133.56,121.305c0,1.254,0.153,2.42,0.46,3.5s0.754,2.014,1.341,2.8c0.586,0.787,1.319,1.407,2.199,1.86
		c0.881,0.454,1.881,0.68,3,0.68c1.014,0,1.946-0.18,2.801-0.539c0.853-0.36,1.6-0.887,2.239-1.581c0.641-0.693,1.141-1.54,1.5-2.54
		c0.36-1,0.54-2.153,0.54-3.46c0.054-1.306-0.054-2.526-0.319-3.66c-0.268-1.133-0.694-2.126-1.28-2.98
		c-0.587-0.853-1.34-1.526-2.26-2.02c-0.92-0.493-1.994-0.74-3.221-0.74c-1.094,0-2.073,0.234-2.939,0.7
		c-0.867,0.467-1.601,1.094-2.2,1.88c-0.6,0.787-1.06,1.707-1.38,2.76C133.72,119.019,133.56,120.132,133.56,121.305z"/>
	<path fill="#FFFFFF" d="M164.84,119.665c0.453-0.053,0.993-0.133,1.619-0.24c0.627-0.106,1.141-0.253,1.54-0.44
		c0.4-0.187,0.646-0.5,0.74-0.94c0.094-0.44,0.141-0.846,0.141-1.22c0-1.227-0.395-2.233-1.181-3.02
		c-0.787-0.786-2.113-1.18-3.979-1.18c-0.827,0-1.587,0.074-2.28,0.22c-0.693,0.147-1.3,0.4-1.82,0.76
		c-0.52,0.36-0.946,0.84-1.279,1.44c-0.334,0.6-0.554,1.354-0.66,2.26h-2.44c0.08-1.226,0.36-2.273,0.84-3.14
		c0.48-0.866,1.101-1.573,1.86-2.12c0.76-0.546,1.64-0.946,2.64-1.2s2.061-0.38,3.181-0.38c1.04,0,2.02,0.114,2.939,0.34
		c0.92,0.227,1.721,0.587,2.4,1.08c0.68,0.494,1.213,1.154,1.6,1.98c0.387,0.827,0.58,1.84,0.58,3.04v11.28
		c0,0.934,0.166,1.527,0.5,1.78c0.333,0.254,1.007,0.193,2.021-0.18v1.88c-0.188,0.054-0.46,0.134-0.82,0.24
		s-0.714,0.159-1.06,0.159c-0.374,0-0.734-0.039-1.08-0.119c-0.4-0.054-0.721-0.18-0.96-0.381c-0.24-0.199-0.435-0.439-0.58-0.719
		c-0.147-0.281-0.247-0.587-0.301-0.92c-0.054-0.334-0.079-0.688-0.079-1.061c-1.015,1.12-2.174,1.974-3.48,2.561
		c-1.307,0.586-2.72,0.879-4.24,0.879c-0.906,0-1.779-0.119-2.62-0.359c-0.84-0.24-1.58-0.613-2.22-1.12s-1.146-1.126-1.52-1.86
		c-0.374-0.733-0.561-1.606-0.561-2.62c0-3.52,2.413-5.6,7.24-6.24L164.84,119.665z M168.88,120.865
		c-1.015,0.427-2.04,0.707-3.08,0.84c-1.04,0.134-2.08,0.24-3.12,0.32c-1.84,0.134-3.274,0.547-4.3,1.24
		c-1.027,0.694-1.54,1.747-1.54,3.16c0,0.64,0.126,1.193,0.38,1.66c0.253,0.467,0.586,0.854,1,1.16
		c0.413,0.307,0.893,0.534,1.439,0.681s1.101,0.219,1.66,0.219c0.96,0,1.894-0.119,2.8-0.359s1.714-0.606,2.42-1.1
		c0.707-0.494,1.273-1.121,1.7-1.88c0.427-0.76,0.641-1.66,0.641-2.7V120.865z"/>
	<path fill="#FFFFFF" d="M180.08,131.745h-2.4v-20.72h2.4v3.88h0.08c0.666-1.653,1.525-2.807,2.579-3.46s2.446-0.98,4.181-0.98v2.6
		c-1.36-0.026-2.48,0.187-3.36,0.64c-0.88,0.454-1.58,1.067-2.1,1.84c-0.521,0.774-0.88,1.687-1.08,2.74
		c-0.2,1.054-0.3,2.154-0.3,3.3V131.745z"/>
	<path fill="#FFFFFF" d="M192.279,125.265c0.373,1.787,1.046,3.047,2.02,3.78c0.974,0.734,2.366,1.1,4.181,1.1
		c0.88,0,1.64-0.105,2.279-0.319c0.641-0.214,1.166-0.5,1.58-0.86c0.413-0.359,0.727-0.766,0.94-1.22
		c0.213-0.453,0.319-0.933,0.319-1.44c0-1.013-0.326-1.766-0.979-2.26c-0.654-0.493-1.474-0.88-2.46-1.16
		c-0.987-0.28-2.054-0.52-3.2-0.72c-1.146-0.2-2.214-0.5-3.2-0.9s-1.807-0.973-2.46-1.72c-0.653-0.746-0.979-1.8-0.979-3.16
		c0-1.733,0.633-3.153,1.899-4.26c1.267-1.106,3.061-1.66,5.38-1.66c2.24,0,4.061,0.5,5.46,1.5c1.4,1,2.247,2.673,2.54,5.02h-2.439
		c-0.214-1.6-0.82-2.727-1.82-3.38c-1-0.653-2.26-0.98-3.78-0.98c-1.52,0-2.68,0.327-3.479,0.98c-0.8,0.654-1.2,1.514-1.2,2.58
		c0,0.934,0.326,1.647,0.98,2.14c0.652,0.494,1.473,0.894,2.46,1.2c0.986,0.307,2.053,0.58,3.199,0.82
		c1.146,0.24,2.214,0.58,3.2,1.02s1.807,1.034,2.46,1.78c0.653,0.747,0.98,1.787,0.98,3.12c0,0.987-0.214,1.86-0.641,2.62
		s-1.014,1.395-1.76,1.9c-0.747,0.507-1.634,0.887-2.66,1.141c-1.026,0.252-2.153,0.379-3.38,0.379s-2.313-0.18-3.26-0.539
		c-0.947-0.36-1.754-0.86-2.42-1.5c-0.667-0.641-1.187-1.387-1.56-2.241c-0.374-0.853-0.587-1.773-0.641-2.76H192.279z"/>
</g>
</svg>
